M48
; DRILL file {KiCad 7.0.1} date Fri Oct 13 19:27:46 2023
; FORMAT={-:-/ absolute / inch / decimal}
; #@! TF.CreationDate,2023-10-13T19:27:46+02:00
; #@! TF.GenerationSoftware,Kicad,Pcbnew,7.0.1
; #@! TF.FileFunction,Plated,1,2,PTH
FMAT,2
INCH
; #@! TA.AperFunction,Plated,PTH,ComponentDrill
T1C0.0276
; #@! TA.AperFunction,Plated,PTH,ComponentDrill
T2C0.0354
; #@! TA.AperFunction,Plated,PTH,ComponentDrill
T3C0.0394
; #@! TA.AperFunction,Plated,PTH,ComponentDrill
T4C0.0520
%
G90
G05
T1
X3.9626Y-5.1559
X3.9626Y-5.3559
T2
X3.935Y-5.7681
X3.935Y-5.8681
X3.935Y-5.9681
X3.9646Y-4.8646
X3.9646Y-4.9646
T3
X4.1083Y-4.0033
X4.1083Y-4.1033
X4.1969Y-4.4024
X4.1969Y-4.5024
X4.1969Y-4.6024
X4.1969Y-4.7024
X4.2018Y-6.0098
X4.2067Y-5.1091
X4.2067Y-5.2091
X4.2067Y-5.3091
X4.2067Y-5.4091
X4.2116Y-5.75
X4.3018Y-6.0098
X4.3116Y-5.75
X4.3445Y-4.0024
X4.3445Y-4.1024
X4.6179Y-4.1142
X4.6179Y-4.2142
X4.6179Y-4.3142
X4.6179Y-4.4142
X4.6179Y-4.5142
X4.6179Y-4.6142
X4.6179Y-4.7142
X4.6179Y-4.8142
X4.6179Y-4.9142
X4.6179Y-5.0142
X4.6179Y-5.1142
X4.6179Y-5.2142
X4.6179Y-5.3142
X4.6179Y-5.4142
X4.6179Y-5.5142
X4.6179Y-5.6142
X4.6179Y-5.7142
X4.6179Y-5.8142
X4.6179Y-5.9142
X4.626Y-6.3071
X4.626Y-6.4071
X4.626Y-6.5071
X4.6673Y-3.585
X4.6673Y-3.685
X4.6673Y-3.785
X4.8996Y-6.3012
X4.8996Y-6.4012
X4.8996Y-6.5012
X4.9272Y-3.5827
X4.9272Y-3.6827
X4.9272Y-3.7827
X5.189Y-3.5787
X5.189Y-3.6787
X5.189Y-3.7787
X5.3524Y-6.2913
X5.3524Y-6.3913
X5.3524Y-6.4913
X5.4626Y-3.5787
X5.4626Y-3.6787
X5.4626Y-3.7787
X5.5866Y-4.1134
X5.5866Y-4.2134
X5.5866Y-4.3134
X5.5866Y-4.4134
X5.5866Y-4.5134
X5.5866Y-4.6134
X5.5866Y-4.7134
X5.5866Y-4.8134
X5.5866Y-4.9134
X5.5866Y-5.0134
X5.5866Y-5.1134
X5.5866Y-5.2134
X5.5866Y-5.3134
X5.5866Y-5.4134
X5.5866Y-5.5134
X5.5866Y-5.6134
X5.5866Y-5.7134
X5.5866Y-5.8134
X5.5866Y-5.9134
X5.6063Y-6.2894
X5.6063Y-6.3894
X5.6063Y-6.4894
X5.8898Y-4.1122
X5.8898Y-4.2122
X5.8898Y-4.3122
X5.8898Y-4.4122
X5.8898Y-4.5122
X5.8898Y-4.6122
X5.8898Y-4.7122
X5.8898Y-4.8122
T4
X4.0945Y-6.3504
X4.0945Y-6.5472
T0
M30
