%TF.GenerationSoftware,KiCad,Pcbnew,7.0.1*%
%TF.CreationDate,2023-10-13T19:27:18+02:00*%
%TF.ProjectId,PCB_ESP32,5043425f-4553-4503-9332-2e6b69636164,rev?*%
%TF.SameCoordinates,Original*%
%TF.FileFunction,Soldermask,Bot*%
%TF.FilePolarity,Negative*%
%FSLAX46Y46*%
G04 Gerber Fmt 4.6, Leading zero omitted, Abs format (unit mm)*
G04 Created by KiCad (PCBNEW 7.0.1) date 2023-10-13 19:27:18*
%MOMM*%
%LPD*%
G01*
G04 APERTURE LIST*
%ADD10R,1.700000X1.700000*%
%ADD11O,1.700000X1.700000*%
%ADD12R,1.800000X1.800000*%
%ADD13C,1.800000*%
%ADD14R,3.960000X1.980000*%
%ADD15O,3.960000X1.980000*%
%ADD16C,2.200000*%
%ADD17C,1.676400*%
%ADD18C,1.400000*%
%ADD19O,1.400000X1.400000*%
G04 APERTURE END LIST*
D10*
%TO.C,J17*%
X104350000Y-104225000D03*
D11*
X104350000Y-101685000D03*
%TD*%
D10*
%TO.C,KNEE_L1*%
X118550000Y-96140000D03*
D11*
X118550000Y-93600000D03*
X118550000Y-91060000D03*
%TD*%
D10*
%TO.C,GAL_R1*%
X106850000Y-137390000D03*
D11*
X106850000Y-134850000D03*
X106850000Y-132310000D03*
X106850000Y-129770000D03*
%TD*%
D10*
%TO.C,J18*%
X106975000Y-146050000D03*
D11*
X109515000Y-146050000D03*
%TD*%
D10*
%TO.C,HIP2_L1*%
X135950000Y-159800000D03*
D11*
X135950000Y-162340000D03*
X135950000Y-164880000D03*
%TD*%
D10*
%TO.C,J16*%
X110350000Y-104200000D03*
D11*
X110350000Y-101660000D03*
%TD*%
D10*
%TO.C,J2*%
X149600000Y-104450000D03*
D11*
X149600000Y-106990000D03*
X149600000Y-109530000D03*
X149600000Y-112070000D03*
X149600000Y-114610000D03*
X149600000Y-117150000D03*
X149600000Y-119690000D03*
X149600000Y-122230000D03*
%TD*%
D10*
%TO.C,J4*%
X141900000Y-150200000D03*
D11*
X141900000Y-147660000D03*
X141900000Y-145120000D03*
X141900000Y-142580000D03*
X141900000Y-140040000D03*
X141900000Y-137500000D03*
X141900000Y-134960000D03*
X141900000Y-132420000D03*
X141900000Y-129880000D03*
X141900000Y-127340000D03*
X141900000Y-124800000D03*
X141900000Y-122260000D03*
X141900000Y-119720000D03*
X141900000Y-117180000D03*
X141900000Y-114640000D03*
X141900000Y-112100000D03*
X141900000Y-109560000D03*
X141900000Y-107020000D03*
X141900000Y-104480000D03*
%TD*%
D10*
%TO.C,HIP2_R1*%
X124450000Y-160050000D03*
D11*
X124450000Y-162590000D03*
X124450000Y-165130000D03*
%TD*%
%TO.C,HIP_R1*%
X117500000Y-165280000D03*
X117500000Y-162740000D03*
D10*
X117500000Y-160200000D03*
%TD*%
%TO.C,KNEE_R1*%
X131800000Y-95980000D03*
D11*
X131800000Y-93440000D03*
X131800000Y-90900000D03*
%TD*%
D12*
%TO.C,D1*%
X100700000Y-123560000D03*
D13*
X100700000Y-126100000D03*
%TD*%
D14*
%TO.C,J1*%
X104000000Y-166300000D03*
D15*
X104000000Y-161300000D03*
%TD*%
D16*
%TO.C,REF\u002A\u002A*%
X98350000Y-93100000D03*
%TD*%
%TO.C,REF\u002A\u002A*%
X150650000Y-92750000D03*
%TD*%
D11*
%TO.C,ANKLE_L1*%
X142400000Y-164830000D03*
X142400000Y-162290000D03*
D10*
X142400000Y-159750000D03*
%TD*%
%TO.C,GAL_L1*%
X106600000Y-119440000D03*
D11*
X106600000Y-116900000D03*
X106600000Y-114360000D03*
X106600000Y-111820000D03*
%TD*%
D17*
%TO.C,S1*%
X99950000Y-146510000D03*
X99950000Y-149050000D03*
X99950000Y-151590000D03*
%TD*%
D11*
%TO.C,HIP_L1*%
X138750000Y-90900000D03*
X138750000Y-93440000D03*
D10*
X138750000Y-95980000D03*
%TD*%
%TO.C,ANKLE_R1*%
X125150000Y-96080000D03*
D11*
X125150000Y-93540000D03*
X125150000Y-91000000D03*
%TD*%
D10*
%TO.C,J3*%
X117295000Y-104500000D03*
D11*
X117295000Y-107040000D03*
X117295000Y-109580000D03*
X117295000Y-112120000D03*
X117295000Y-114660000D03*
X117295000Y-117200000D03*
X117295000Y-119740000D03*
X117295000Y-122280000D03*
X117295000Y-124820000D03*
X117295000Y-127360000D03*
X117295000Y-129900000D03*
X117295000Y-132440000D03*
X117295000Y-134980000D03*
X117295000Y-137520000D03*
X117295000Y-140060000D03*
X117295000Y-142600000D03*
X117295000Y-145140000D03*
X117295000Y-147680000D03*
X117295000Y-150220000D03*
%TD*%
D18*
%TO.C,R1*%
X100650000Y-136040000D03*
D19*
X100650000Y-130960000D03*
%TD*%
D16*
%TO.C,REF\u002A\u002A*%
X151200000Y-164100000D03*
%TD*%
D10*
%TO.C,J19*%
X106725000Y-152650000D03*
D11*
X109265000Y-152650000D03*
%TD*%
M02*
