%TF.GenerationSoftware,KiCad,Pcbnew,7.0.1*%
%TF.CreationDate,2023-10-13T19:27:18+02:00*%
%TF.ProjectId,PCB_ESP32,5043425f-4553-4503-9332-2e6b69636164,rev?*%
%TF.SameCoordinates,Original*%
%TF.FileFunction,Copper,L1,Top*%
%TF.FilePolarity,Positive*%
%FSLAX46Y46*%
G04 Gerber Fmt 4.6, Leading zero omitted, Abs format (unit mm)*
G04 Created by KiCad (PCBNEW 7.0.1) date 2023-10-13 19:27:18*
%MOMM*%
%LPD*%
G01*
G04 APERTURE LIST*
%TA.AperFunction,ComponentPad*%
%ADD10R,1.700000X1.700000*%
%TD*%
%TA.AperFunction,ComponentPad*%
%ADD11O,1.700000X1.700000*%
%TD*%
%TA.AperFunction,ComponentPad*%
%ADD12R,1.800000X1.800000*%
%TD*%
%TA.AperFunction,ComponentPad*%
%ADD13C,1.800000*%
%TD*%
%TA.AperFunction,ComponentPad*%
%ADD14R,3.960000X1.980000*%
%TD*%
%TA.AperFunction,ComponentPad*%
%ADD15O,3.960000X1.980000*%
%TD*%
%TA.AperFunction,ComponentPad*%
%ADD16C,1.676400*%
%TD*%
%TA.AperFunction,ComponentPad*%
%ADD17C,1.400000*%
%TD*%
%TA.AperFunction,ComponentPad*%
%ADD18O,1.400000X1.400000*%
%TD*%
G04 APERTURE END LIST*
D10*
%TO.P,J17,1,Pin_1*%
%TO.N,3V3*%
X104350000Y-104225000D03*
D11*
%TO.P,J17,2,Pin_2*%
%TO.N,GND*%
X104350000Y-101685000D03*
%TD*%
D10*
%TO.P,KNEE_L1,1,Pin_1*%
%TO.N,G17*%
X118550000Y-96140000D03*
D11*
%TO.P,KNEE_L1,2,Pin_2*%
%TO.N,VCC*%
X118550000Y-93600000D03*
%TO.P,KNEE_L1,3,Pin_3*%
%TO.N,GND*%
X118550000Y-91060000D03*
%TD*%
D10*
%TO.P,GAL_R1,1,Pin_1*%
%TO.N,G14*%
X106850000Y-137390000D03*
D11*
%TO.P,GAL_R1,2,Pin_2*%
%TO.N,G27*%
X106850000Y-134850000D03*
%TO.P,GAL_R1,3,Pin_3*%
%TO.N,G26*%
X106850000Y-132310000D03*
%TO.P,GAL_R1,4,Pin_4*%
%TO.N,G25*%
X106850000Y-129770000D03*
%TD*%
D10*
%TO.P,J18,1,Pin_1*%
%TO.N,VCC*%
X106975000Y-146050000D03*
D11*
%TO.P,J18,2,Pin_2*%
%TO.N,GND*%
X109515000Y-146050000D03*
%TD*%
D10*
%TO.P,HIP2_L1,1,Pin_1*%
%TO.N,G4*%
X135950000Y-159800000D03*
D11*
%TO.P,HIP2_L1,2,Pin_2*%
%TO.N,VCC*%
X135950000Y-162340000D03*
%TO.P,HIP2_L1,3,Pin_3*%
%TO.N,GND*%
X135950000Y-164880000D03*
%TD*%
D10*
%TO.P,J16,1,Pin_1*%
%TO.N,3V3*%
X110350000Y-104200000D03*
D11*
%TO.P,J16,2,Pin_2*%
%TO.N,GND*%
X110350000Y-101660000D03*
%TD*%
D10*
%TO.P,J2,1,Pin_1*%
%TO.N,VCC*%
X149600000Y-104450000D03*
D11*
%TO.P,J2,2,Pin_2*%
%TO.N,GND*%
X149600000Y-106990000D03*
%TO.P,J2,3,Pin_3*%
%TO.N,G22*%
X149600000Y-109530000D03*
%TO.P,J2,4,Pin_4*%
%TO.N,G21*%
X149600000Y-112070000D03*
%TO.P,J2,5,Pin_5*%
%TO.N,unconnected-(J2-Pin_5-Pad5)*%
X149600000Y-114610000D03*
%TO.P,J2,6,Pin_6*%
%TO.N,unconnected-(J2-Pin_6-Pad6)*%
X149600000Y-117150000D03*
%TO.P,J2,7,Pin_7*%
%TO.N,unconnected-(J2-Pin_7-Pad7)*%
X149600000Y-119690000D03*
%TO.P,J2,8,Pin_8*%
%TO.N,unconnected-(J2-Pin_8-Pad8)*%
X149600000Y-122230000D03*
%TD*%
D10*
%TO.P,J4,1,Pin_1*%
%TO.N,CLK*%
X141900000Y-150200000D03*
D11*
%TO.P,J4,2,Pin_2*%
%TO.N,SD0*%
X141900000Y-147660000D03*
%TO.P,J4,3,Pin_3*%
%TO.N,SD1*%
X141900000Y-145120000D03*
%TO.P,J4,4,Pin_4*%
%TO.N,G15*%
X141900000Y-142580000D03*
%TO.P,J4,5,Pin_5*%
%TO.N,G2*%
X141900000Y-140040000D03*
%TO.P,J4,6,Pin_6*%
%TO.N,G0*%
X141900000Y-137500000D03*
%TO.P,J4,7,Pin_7*%
%TO.N,G4*%
X141900000Y-134960000D03*
%TO.P,J4,8,Pin_8*%
%TO.N,G16*%
X141900000Y-132420000D03*
%TO.P,J4,9,Pin_9*%
%TO.N,G17*%
X141900000Y-129880000D03*
%TO.P,J4,10,Pin_10*%
%TO.N,G5*%
X141900000Y-127340000D03*
%TO.P,J4,11,Pin_11*%
%TO.N,G18*%
X141900000Y-124800000D03*
%TO.P,J4,12,Pin_12*%
%TO.N,G19*%
X141900000Y-122260000D03*
%TO.P,J4,13,Pin_13*%
%TO.N,GND*%
X141900000Y-119720000D03*
%TO.P,J4,14,Pin_14*%
%TO.N,G21*%
X141900000Y-117180000D03*
%TO.P,J4,15,Pin_15*%
%TO.N,RX0*%
X141900000Y-114640000D03*
%TO.P,J4,16,Pin_16*%
%TO.N,TX0*%
X141900000Y-112100000D03*
%TO.P,J4,17,Pin_17*%
%TO.N,G22*%
X141900000Y-109560000D03*
%TO.P,J4,18,Pin_18*%
%TO.N,G23*%
X141900000Y-107020000D03*
%TO.P,J4,19,Pin_19*%
%TO.N,GND*%
X141900000Y-104480000D03*
%TD*%
D10*
%TO.P,HIP2_R1,1,Pin_1*%
%TO.N,G16*%
X124450000Y-160050000D03*
D11*
%TO.P,HIP2_R1,2,Pin_2*%
%TO.N,VCC*%
X124450000Y-162590000D03*
%TO.P,HIP2_R1,3,Pin_3*%
%TO.N,GND*%
X124450000Y-165130000D03*
%TD*%
%TO.P,HIP_R1,3,Pin_3*%
%TO.N,GND*%
X117500000Y-165280000D03*
%TO.P,HIP_R1,2,Pin_2*%
%TO.N,VCC*%
X117500000Y-162740000D03*
D10*
%TO.P,HIP_R1,1,Pin_1*%
%TO.N,G13*%
X117500000Y-160200000D03*
%TD*%
%TO.P,KNEE_R1,1,Pin_1*%
%TO.N,G19*%
X131800000Y-95980000D03*
D11*
%TO.P,KNEE_R1,2,Pin_2*%
%TO.N,VCC*%
X131800000Y-93440000D03*
%TO.P,KNEE_R1,3,Pin_3*%
%TO.N,GND*%
X131800000Y-90900000D03*
%TD*%
D12*
%TO.P,D1,1,K*%
%TO.N,GND*%
X100700000Y-123560000D03*
D13*
%TO.P,D1,2,A*%
%TO.N,Net-(D1-A)*%
X100700000Y-126100000D03*
%TD*%
D14*
%TO.P,J1,1,Pin_1*%
%TO.N,GND*%
X104000000Y-166300000D03*
D15*
%TO.P,J1,2,Pin_2*%
%TO.N,+5V*%
X104000000Y-161300000D03*
%TD*%
D11*
%TO.P,ANKLE_L1,3,Pin_3*%
%TO.N,GND*%
X142400000Y-164830000D03*
%TO.P,ANKLE_L1,2,Pin_2*%
%TO.N,VCC*%
X142400000Y-162290000D03*
D10*
%TO.P,ANKLE_L1,1,Pin_1*%
%TO.N,G15*%
X142400000Y-159750000D03*
%TD*%
%TO.P,GAL_L1,1,Pin_1*%
%TO.N,G33*%
X106600000Y-119440000D03*
D11*
%TO.P,GAL_L1,2,Pin_2*%
%TO.N,G32*%
X106600000Y-116900000D03*
%TO.P,GAL_L1,3,Pin_3*%
%TO.N,G35*%
X106600000Y-114360000D03*
%TO.P,GAL_L1,4,Pin_4*%
%TO.N,G34*%
X106600000Y-111820000D03*
%TD*%
D16*
%TO.P,S1,O*%
%TO.N,GND*%
X99950000Y-146510000D03*
%TO.P,S1,P*%
%TO.N,VCC*%
X99950000Y-149050000D03*
%TO.P,S1,S*%
%TO.N,+5V*%
X99950000Y-151590000D03*
%TD*%
D11*
%TO.P,HIP_L1,3,Pin_3*%
%TO.N,GND*%
X138750000Y-90900000D03*
%TO.P,HIP_L1,2,Pin_2*%
%TO.N,VCC*%
X138750000Y-93440000D03*
D10*
%TO.P,HIP_L1,1,Pin_1*%
%TO.N,G23*%
X138750000Y-95980000D03*
%TD*%
%TO.P,ANKLE_R1,1,Pin_1*%
%TO.N,G18*%
X125150000Y-96080000D03*
D11*
%TO.P,ANKLE_R1,2,Pin_2*%
%TO.N,VCC*%
X125150000Y-93540000D03*
%TO.P,ANKLE_R1,3,Pin_3*%
%TO.N,GND*%
X125150000Y-91000000D03*
%TD*%
D10*
%TO.P,J3,1,Pin_1*%
%TO.N,3V3*%
X117295000Y-104500000D03*
D11*
%TO.P,J3,2,Pin_2*%
%TO.N,EN*%
X117295000Y-107040000D03*
%TO.P,J3,3,Pin_3*%
%TO.N,SP*%
X117295000Y-109580000D03*
%TO.P,J3,4,Pin_4*%
%TO.N,SN*%
X117295000Y-112120000D03*
%TO.P,J3,5,Pin_5*%
%TO.N,G34*%
X117295000Y-114660000D03*
%TO.P,J3,6,Pin_6*%
%TO.N,G35*%
X117295000Y-117200000D03*
%TO.P,J3,7,Pin_7*%
%TO.N,G32*%
X117295000Y-119740000D03*
%TO.P,J3,8,Pin_8*%
%TO.N,G33*%
X117295000Y-122280000D03*
%TO.P,J3,9,Pin_9*%
%TO.N,G25*%
X117295000Y-124820000D03*
%TO.P,J3,10,Pin_10*%
%TO.N,G26*%
X117295000Y-127360000D03*
%TO.P,J3,11,Pin_11*%
%TO.N,G27*%
X117295000Y-129900000D03*
%TO.P,J3,12,Pin_12*%
%TO.N,G14*%
X117295000Y-132440000D03*
%TO.P,J3,13,Pin_13*%
%TO.N,G12*%
X117295000Y-134980000D03*
%TO.P,J3,14,Pin_14*%
%TO.N,GND*%
X117295000Y-137520000D03*
%TO.P,J3,15,Pin_15*%
%TO.N,G13*%
X117295000Y-140060000D03*
%TO.P,J3,16,Pin_16*%
%TO.N,SD2*%
X117295000Y-142600000D03*
%TO.P,J3,17,Pin_17*%
%TO.N,SD3*%
X117295000Y-145140000D03*
%TO.P,J3,18,Pin_18*%
%TO.N,CMD*%
X117295000Y-147680000D03*
%TO.P,J3,19,Pin_19*%
%TO.N,VCC*%
X117295000Y-150220000D03*
%TD*%
D17*
%TO.P,R1,1*%
%TO.N,VCC*%
X100650000Y-136040000D03*
D18*
%TO.P,R1,2*%
%TO.N,Net-(D1-A)*%
X100650000Y-130960000D03*
%TD*%
D10*
%TO.P,J19,1,Pin_1*%
%TO.N,VCC*%
X106725000Y-152650000D03*
D11*
%TO.P,J19,2,Pin_2*%
%TO.N,GND*%
X109265000Y-152650000D03*
%TD*%
M02*
