%TF.GenerationSoftware,KiCad,Pcbnew,7.0.1*%
%TF.CreationDate,2023-10-13T19:27:18+02:00*%
%TF.ProjectId,PCB_ESP32,5043425f-4553-4503-9332-2e6b69636164,rev?*%
%TF.SameCoordinates,Original*%
%TF.FileFunction,Legend,Top*%
%TF.FilePolarity,Positive*%
%FSLAX46Y46*%
G04 Gerber Fmt 4.6, Leading zero omitted, Abs format (unit mm)*
G04 Created by KiCad (PCBNEW 7.0.1) date 2023-10-13 19:27:18*
%MOMM*%
%LPD*%
G01*
G04 APERTURE LIST*
%ADD10C,0.150000*%
%ADD11C,0.120000*%
%ADD12C,0.127000*%
G04 APERTURE END LIST*
D10*
%TO.C,J17*%
X103540476Y-106017619D02*
X103540476Y-106731904D01*
X103540476Y-106731904D02*
X103492857Y-106874761D01*
X103492857Y-106874761D02*
X103397619Y-106970000D01*
X103397619Y-106970000D02*
X103254762Y-107017619D01*
X103254762Y-107017619D02*
X103159524Y-107017619D01*
X104540476Y-107017619D02*
X103969048Y-107017619D01*
X104254762Y-107017619D02*
X104254762Y-106017619D01*
X104254762Y-106017619D02*
X104159524Y-106160476D01*
X104159524Y-106160476D02*
X104064286Y-106255714D01*
X104064286Y-106255714D02*
X103969048Y-106303333D01*
X104873810Y-106017619D02*
X105540476Y-106017619D01*
X105540476Y-106017619D02*
X105111905Y-107017619D01*
%TO.C,KNEE_L1*%
X115597619Y-98932619D02*
X115597619Y-97932619D01*
X116169047Y-98932619D02*
X115740476Y-98361190D01*
X116169047Y-97932619D02*
X115597619Y-98504047D01*
X116597619Y-98932619D02*
X116597619Y-97932619D01*
X116597619Y-97932619D02*
X117169047Y-98932619D01*
X117169047Y-98932619D02*
X117169047Y-97932619D01*
X117645238Y-98408809D02*
X117978571Y-98408809D01*
X118121428Y-98932619D02*
X117645238Y-98932619D01*
X117645238Y-98932619D02*
X117645238Y-97932619D01*
X117645238Y-97932619D02*
X118121428Y-97932619D01*
X118550000Y-98408809D02*
X118883333Y-98408809D01*
X119026190Y-98932619D02*
X118550000Y-98932619D01*
X118550000Y-98932619D02*
X118550000Y-97932619D01*
X118550000Y-97932619D02*
X119026190Y-97932619D01*
X119216667Y-99027857D02*
X119978571Y-99027857D01*
X120692857Y-98932619D02*
X120216667Y-98932619D01*
X120216667Y-98932619D02*
X120216667Y-97932619D01*
X121550000Y-98932619D02*
X120978572Y-98932619D01*
X121264286Y-98932619D02*
X121264286Y-97932619D01*
X121264286Y-97932619D02*
X121169048Y-98075476D01*
X121169048Y-98075476D02*
X121073810Y-98170714D01*
X121073810Y-98170714D02*
X120978572Y-98218333D01*
%TO.C,GAL_R1*%
X104921428Y-139230238D02*
X104826190Y-139182619D01*
X104826190Y-139182619D02*
X104683333Y-139182619D01*
X104683333Y-139182619D02*
X104540476Y-139230238D01*
X104540476Y-139230238D02*
X104445238Y-139325476D01*
X104445238Y-139325476D02*
X104397619Y-139420714D01*
X104397619Y-139420714D02*
X104350000Y-139611190D01*
X104350000Y-139611190D02*
X104350000Y-139754047D01*
X104350000Y-139754047D02*
X104397619Y-139944523D01*
X104397619Y-139944523D02*
X104445238Y-140039761D01*
X104445238Y-140039761D02*
X104540476Y-140135000D01*
X104540476Y-140135000D02*
X104683333Y-140182619D01*
X104683333Y-140182619D02*
X104778571Y-140182619D01*
X104778571Y-140182619D02*
X104921428Y-140135000D01*
X104921428Y-140135000D02*
X104969047Y-140087380D01*
X104969047Y-140087380D02*
X104969047Y-139754047D01*
X104969047Y-139754047D02*
X104778571Y-139754047D01*
X105350000Y-139896904D02*
X105826190Y-139896904D01*
X105254762Y-140182619D02*
X105588095Y-139182619D01*
X105588095Y-139182619D02*
X105921428Y-140182619D01*
X106730952Y-140182619D02*
X106254762Y-140182619D01*
X106254762Y-140182619D02*
X106254762Y-139182619D01*
X106826191Y-140277857D02*
X107588095Y-140277857D01*
X108397619Y-140182619D02*
X108064286Y-139706428D01*
X107826191Y-140182619D02*
X107826191Y-139182619D01*
X107826191Y-139182619D02*
X108207143Y-139182619D01*
X108207143Y-139182619D02*
X108302381Y-139230238D01*
X108302381Y-139230238D02*
X108350000Y-139277857D01*
X108350000Y-139277857D02*
X108397619Y-139373095D01*
X108397619Y-139373095D02*
X108397619Y-139515952D01*
X108397619Y-139515952D02*
X108350000Y-139611190D01*
X108350000Y-139611190D02*
X108302381Y-139658809D01*
X108302381Y-139658809D02*
X108207143Y-139706428D01*
X108207143Y-139706428D02*
X107826191Y-139706428D01*
X109350000Y-140182619D02*
X108778572Y-140182619D01*
X109064286Y-140182619D02*
X109064286Y-139182619D01*
X109064286Y-139182619D02*
X108969048Y-139325476D01*
X108969048Y-139325476D02*
X108873810Y-139420714D01*
X108873810Y-139420714D02*
X108778572Y-139468333D01*
%TO.C,J18*%
X104107619Y-146859523D02*
X104821904Y-146859523D01*
X104821904Y-146859523D02*
X104964761Y-146907142D01*
X104964761Y-146907142D02*
X105060000Y-147002380D01*
X105060000Y-147002380D02*
X105107619Y-147145237D01*
X105107619Y-147145237D02*
X105107619Y-147240475D01*
X105107619Y-145859523D02*
X105107619Y-146430951D01*
X105107619Y-146145237D02*
X104107619Y-146145237D01*
X104107619Y-146145237D02*
X104250476Y-146240475D01*
X104250476Y-146240475D02*
X104345714Y-146335713D01*
X104345714Y-146335713D02*
X104393333Y-146430951D01*
X104536190Y-145288094D02*
X104488571Y-145383332D01*
X104488571Y-145383332D02*
X104440952Y-145430951D01*
X104440952Y-145430951D02*
X104345714Y-145478570D01*
X104345714Y-145478570D02*
X104298095Y-145478570D01*
X104298095Y-145478570D02*
X104202857Y-145430951D01*
X104202857Y-145430951D02*
X104155238Y-145383332D01*
X104155238Y-145383332D02*
X104107619Y-145288094D01*
X104107619Y-145288094D02*
X104107619Y-145097618D01*
X104107619Y-145097618D02*
X104155238Y-145002380D01*
X104155238Y-145002380D02*
X104202857Y-144954761D01*
X104202857Y-144954761D02*
X104298095Y-144907142D01*
X104298095Y-144907142D02*
X104345714Y-144907142D01*
X104345714Y-144907142D02*
X104440952Y-144954761D01*
X104440952Y-144954761D02*
X104488571Y-145002380D01*
X104488571Y-145002380D02*
X104536190Y-145097618D01*
X104536190Y-145097618D02*
X104536190Y-145288094D01*
X104536190Y-145288094D02*
X104583809Y-145383332D01*
X104583809Y-145383332D02*
X104631428Y-145430951D01*
X104631428Y-145430951D02*
X104726666Y-145478570D01*
X104726666Y-145478570D02*
X104917142Y-145478570D01*
X104917142Y-145478570D02*
X105012380Y-145430951D01*
X105012380Y-145430951D02*
X105060000Y-145383332D01*
X105060000Y-145383332D02*
X105107619Y-145288094D01*
X105107619Y-145288094D02*
X105107619Y-145097618D01*
X105107619Y-145097618D02*
X105060000Y-145002380D01*
X105060000Y-145002380D02*
X105012380Y-144954761D01*
X105012380Y-144954761D02*
X104917142Y-144907142D01*
X104917142Y-144907142D02*
X104726666Y-144907142D01*
X104726666Y-144907142D02*
X104631428Y-144954761D01*
X104631428Y-144954761D02*
X104583809Y-145002380D01*
X104583809Y-145002380D02*
X104536190Y-145097618D01*
%TO.C,HIP2_L1*%
X133188095Y-157932619D02*
X133188095Y-156932619D01*
X133188095Y-157408809D02*
X133759523Y-157408809D01*
X133759523Y-157932619D02*
X133759523Y-156932619D01*
X134235714Y-157932619D02*
X134235714Y-156932619D01*
X134711904Y-157932619D02*
X134711904Y-156932619D01*
X134711904Y-156932619D02*
X135092856Y-156932619D01*
X135092856Y-156932619D02*
X135188094Y-156980238D01*
X135188094Y-156980238D02*
X135235713Y-157027857D01*
X135235713Y-157027857D02*
X135283332Y-157123095D01*
X135283332Y-157123095D02*
X135283332Y-157265952D01*
X135283332Y-157265952D02*
X135235713Y-157361190D01*
X135235713Y-157361190D02*
X135188094Y-157408809D01*
X135188094Y-157408809D02*
X135092856Y-157456428D01*
X135092856Y-157456428D02*
X134711904Y-157456428D01*
X135664285Y-157027857D02*
X135711904Y-156980238D01*
X135711904Y-156980238D02*
X135807142Y-156932619D01*
X135807142Y-156932619D02*
X136045237Y-156932619D01*
X136045237Y-156932619D02*
X136140475Y-156980238D01*
X136140475Y-156980238D02*
X136188094Y-157027857D01*
X136188094Y-157027857D02*
X136235713Y-157123095D01*
X136235713Y-157123095D02*
X136235713Y-157218333D01*
X136235713Y-157218333D02*
X136188094Y-157361190D01*
X136188094Y-157361190D02*
X135616666Y-157932619D01*
X135616666Y-157932619D02*
X136235713Y-157932619D01*
X136426190Y-158027857D02*
X137188094Y-158027857D01*
X137902380Y-157932619D02*
X137426190Y-157932619D01*
X137426190Y-157932619D02*
X137426190Y-156932619D01*
X138759523Y-157932619D02*
X138188095Y-157932619D01*
X138473809Y-157932619D02*
X138473809Y-156932619D01*
X138473809Y-156932619D02*
X138378571Y-157075476D01*
X138378571Y-157075476D02*
X138283333Y-157170714D01*
X138283333Y-157170714D02*
X138188095Y-157218333D01*
%TO.C,J16*%
X109540476Y-105992619D02*
X109540476Y-106706904D01*
X109540476Y-106706904D02*
X109492857Y-106849761D01*
X109492857Y-106849761D02*
X109397619Y-106945000D01*
X109397619Y-106945000D02*
X109254762Y-106992619D01*
X109254762Y-106992619D02*
X109159524Y-106992619D01*
X110540476Y-106992619D02*
X109969048Y-106992619D01*
X110254762Y-106992619D02*
X110254762Y-105992619D01*
X110254762Y-105992619D02*
X110159524Y-106135476D01*
X110159524Y-106135476D02*
X110064286Y-106230714D01*
X110064286Y-106230714D02*
X109969048Y-106278333D01*
X111397619Y-105992619D02*
X111207143Y-105992619D01*
X111207143Y-105992619D02*
X111111905Y-106040238D01*
X111111905Y-106040238D02*
X111064286Y-106087857D01*
X111064286Y-106087857D02*
X110969048Y-106230714D01*
X110969048Y-106230714D02*
X110921429Y-106421190D01*
X110921429Y-106421190D02*
X110921429Y-106802142D01*
X110921429Y-106802142D02*
X110969048Y-106897380D01*
X110969048Y-106897380D02*
X111016667Y-106945000D01*
X111016667Y-106945000D02*
X111111905Y-106992619D01*
X111111905Y-106992619D02*
X111302381Y-106992619D01*
X111302381Y-106992619D02*
X111397619Y-106945000D01*
X111397619Y-106945000D02*
X111445238Y-106897380D01*
X111445238Y-106897380D02*
X111492857Y-106802142D01*
X111492857Y-106802142D02*
X111492857Y-106564047D01*
X111492857Y-106564047D02*
X111445238Y-106468809D01*
X111445238Y-106468809D02*
X111397619Y-106421190D01*
X111397619Y-106421190D02*
X111302381Y-106373571D01*
X111302381Y-106373571D02*
X111111905Y-106373571D01*
X111111905Y-106373571D02*
X111016667Y-106421190D01*
X111016667Y-106421190D02*
X110969048Y-106468809D01*
X110969048Y-106468809D02*
X110921429Y-106564047D01*
%TO.C,J2*%
X149266666Y-101142619D02*
X149266666Y-101856904D01*
X149266666Y-101856904D02*
X149219047Y-101999761D01*
X149219047Y-101999761D02*
X149123809Y-102095000D01*
X149123809Y-102095000D02*
X148980952Y-102142619D01*
X148980952Y-102142619D02*
X148885714Y-102142619D01*
X149695238Y-101237857D02*
X149742857Y-101190238D01*
X149742857Y-101190238D02*
X149838095Y-101142619D01*
X149838095Y-101142619D02*
X150076190Y-101142619D01*
X150076190Y-101142619D02*
X150171428Y-101190238D01*
X150171428Y-101190238D02*
X150219047Y-101237857D01*
X150219047Y-101237857D02*
X150266666Y-101333095D01*
X150266666Y-101333095D02*
X150266666Y-101428333D01*
X150266666Y-101428333D02*
X150219047Y-101571190D01*
X150219047Y-101571190D02*
X149647619Y-102142619D01*
X149647619Y-102142619D02*
X150266666Y-102142619D01*
%TO.C,J4*%
X141566666Y-152432619D02*
X141566666Y-153146904D01*
X141566666Y-153146904D02*
X141519047Y-153289761D01*
X141519047Y-153289761D02*
X141423809Y-153385000D01*
X141423809Y-153385000D02*
X141280952Y-153432619D01*
X141280952Y-153432619D02*
X141185714Y-153432619D01*
X142471428Y-152765952D02*
X142471428Y-153432619D01*
X142233333Y-152385000D02*
X141995238Y-153099285D01*
X141995238Y-153099285D02*
X142614285Y-153099285D01*
%TO.C,HIP2_R1*%
X121592857Y-158182619D02*
X121592857Y-157182619D01*
X121592857Y-157658809D02*
X122164285Y-157658809D01*
X122164285Y-158182619D02*
X122164285Y-157182619D01*
X122640476Y-158182619D02*
X122640476Y-157182619D01*
X123116666Y-158182619D02*
X123116666Y-157182619D01*
X123116666Y-157182619D02*
X123497618Y-157182619D01*
X123497618Y-157182619D02*
X123592856Y-157230238D01*
X123592856Y-157230238D02*
X123640475Y-157277857D01*
X123640475Y-157277857D02*
X123688094Y-157373095D01*
X123688094Y-157373095D02*
X123688094Y-157515952D01*
X123688094Y-157515952D02*
X123640475Y-157611190D01*
X123640475Y-157611190D02*
X123592856Y-157658809D01*
X123592856Y-157658809D02*
X123497618Y-157706428D01*
X123497618Y-157706428D02*
X123116666Y-157706428D01*
X124069047Y-157277857D02*
X124116666Y-157230238D01*
X124116666Y-157230238D02*
X124211904Y-157182619D01*
X124211904Y-157182619D02*
X124449999Y-157182619D01*
X124449999Y-157182619D02*
X124545237Y-157230238D01*
X124545237Y-157230238D02*
X124592856Y-157277857D01*
X124592856Y-157277857D02*
X124640475Y-157373095D01*
X124640475Y-157373095D02*
X124640475Y-157468333D01*
X124640475Y-157468333D02*
X124592856Y-157611190D01*
X124592856Y-157611190D02*
X124021428Y-158182619D01*
X124021428Y-158182619D02*
X124640475Y-158182619D01*
X124830952Y-158277857D02*
X125592856Y-158277857D01*
X126402380Y-158182619D02*
X126069047Y-157706428D01*
X125830952Y-158182619D02*
X125830952Y-157182619D01*
X125830952Y-157182619D02*
X126211904Y-157182619D01*
X126211904Y-157182619D02*
X126307142Y-157230238D01*
X126307142Y-157230238D02*
X126354761Y-157277857D01*
X126354761Y-157277857D02*
X126402380Y-157373095D01*
X126402380Y-157373095D02*
X126402380Y-157515952D01*
X126402380Y-157515952D02*
X126354761Y-157611190D01*
X126354761Y-157611190D02*
X126307142Y-157658809D01*
X126307142Y-157658809D02*
X126211904Y-157706428D01*
X126211904Y-157706428D02*
X125830952Y-157706428D01*
X127354761Y-158182619D02*
X126783333Y-158182619D01*
X127069047Y-158182619D02*
X127069047Y-157182619D01*
X127069047Y-157182619D02*
X126973809Y-157325476D01*
X126973809Y-157325476D02*
X126878571Y-157420714D01*
X126878571Y-157420714D02*
X126783333Y-157468333D01*
%TO.C,D1*%
X104122619Y-125568094D02*
X103122619Y-125568094D01*
X103122619Y-125568094D02*
X103122619Y-125329999D01*
X103122619Y-125329999D02*
X103170238Y-125187142D01*
X103170238Y-125187142D02*
X103265476Y-125091904D01*
X103265476Y-125091904D02*
X103360714Y-125044285D01*
X103360714Y-125044285D02*
X103551190Y-124996666D01*
X103551190Y-124996666D02*
X103694047Y-124996666D01*
X103694047Y-124996666D02*
X103884523Y-125044285D01*
X103884523Y-125044285D02*
X103979761Y-125091904D01*
X103979761Y-125091904D02*
X104075000Y-125187142D01*
X104075000Y-125187142D02*
X104122619Y-125329999D01*
X104122619Y-125329999D02*
X104122619Y-125568094D01*
X104122619Y-124044285D02*
X104122619Y-124615713D01*
X104122619Y-124329999D02*
X103122619Y-124329999D01*
X103122619Y-124329999D02*
X103265476Y-124425237D01*
X103265476Y-124425237D02*
X103360714Y-124520475D01*
X103360714Y-124520475D02*
X103408333Y-124615713D01*
%TO.C,J1*%
X96472619Y-168553333D02*
X97186904Y-168553333D01*
X97186904Y-168553333D02*
X97329761Y-168600952D01*
X97329761Y-168600952D02*
X97425000Y-168696190D01*
X97425000Y-168696190D02*
X97472619Y-168839047D01*
X97472619Y-168839047D02*
X97472619Y-168934285D01*
X97472619Y-167553333D02*
X97472619Y-168124761D01*
X97472619Y-167839047D02*
X96472619Y-167839047D01*
X96472619Y-167839047D02*
X96615476Y-167934285D01*
X96615476Y-167934285D02*
X96710714Y-168029523D01*
X96710714Y-168029523D02*
X96758333Y-168124761D01*
%TO.C,REF\u002A\u002A*%
X97016666Y-90362619D02*
X96683333Y-89886428D01*
X96445238Y-90362619D02*
X96445238Y-89362619D01*
X96445238Y-89362619D02*
X96826190Y-89362619D01*
X96826190Y-89362619D02*
X96921428Y-89410238D01*
X96921428Y-89410238D02*
X96969047Y-89457857D01*
X96969047Y-89457857D02*
X97016666Y-89553095D01*
X97016666Y-89553095D02*
X97016666Y-89695952D01*
X97016666Y-89695952D02*
X96969047Y-89791190D01*
X96969047Y-89791190D02*
X96921428Y-89838809D01*
X96921428Y-89838809D02*
X96826190Y-89886428D01*
X96826190Y-89886428D02*
X96445238Y-89886428D01*
X97445238Y-89838809D02*
X97778571Y-89838809D01*
X97921428Y-90362619D02*
X97445238Y-90362619D01*
X97445238Y-90362619D02*
X97445238Y-89362619D01*
X97445238Y-89362619D02*
X97921428Y-89362619D01*
X98683333Y-89838809D02*
X98350000Y-89838809D01*
X98350000Y-90362619D02*
X98350000Y-89362619D01*
X98350000Y-89362619D02*
X98826190Y-89362619D01*
X99350000Y-89362619D02*
X99350000Y-89600714D01*
X99111905Y-89505476D02*
X99350000Y-89600714D01*
X99350000Y-89600714D02*
X99588095Y-89505476D01*
X99207143Y-89791190D02*
X99350000Y-89600714D01*
X99350000Y-89600714D02*
X99492857Y-89791190D01*
X100111905Y-89362619D02*
X100111905Y-89600714D01*
X99873810Y-89505476D02*
X100111905Y-89600714D01*
X100111905Y-89600714D02*
X100350000Y-89505476D01*
X99969048Y-89791190D02*
X100111905Y-89600714D01*
X100111905Y-89600714D02*
X100254762Y-89791190D01*
X149316666Y-90012619D02*
X148983333Y-89536428D01*
X148745238Y-90012619D02*
X148745238Y-89012619D01*
X148745238Y-89012619D02*
X149126190Y-89012619D01*
X149126190Y-89012619D02*
X149221428Y-89060238D01*
X149221428Y-89060238D02*
X149269047Y-89107857D01*
X149269047Y-89107857D02*
X149316666Y-89203095D01*
X149316666Y-89203095D02*
X149316666Y-89345952D01*
X149316666Y-89345952D02*
X149269047Y-89441190D01*
X149269047Y-89441190D02*
X149221428Y-89488809D01*
X149221428Y-89488809D02*
X149126190Y-89536428D01*
X149126190Y-89536428D02*
X148745238Y-89536428D01*
X149745238Y-89488809D02*
X150078571Y-89488809D01*
X150221428Y-90012619D02*
X149745238Y-90012619D01*
X149745238Y-90012619D02*
X149745238Y-89012619D01*
X149745238Y-89012619D02*
X150221428Y-89012619D01*
X150983333Y-89488809D02*
X150650000Y-89488809D01*
X150650000Y-90012619D02*
X150650000Y-89012619D01*
X150650000Y-89012619D02*
X151126190Y-89012619D01*
X151650000Y-89012619D02*
X151650000Y-89250714D01*
X151411905Y-89155476D02*
X151650000Y-89250714D01*
X151650000Y-89250714D02*
X151888095Y-89155476D01*
X151507143Y-89441190D02*
X151650000Y-89250714D01*
X151650000Y-89250714D02*
X151792857Y-89441190D01*
X152411905Y-89012619D02*
X152411905Y-89250714D01*
X152173810Y-89155476D02*
X152411905Y-89250714D01*
X152411905Y-89250714D02*
X152650000Y-89155476D01*
X152269048Y-89441190D02*
X152411905Y-89250714D01*
X152411905Y-89250714D02*
X152554762Y-89441190D01*
%TO.C,ANKLE_L1*%
X139019047Y-157596904D02*
X139495237Y-157596904D01*
X138923809Y-157882619D02*
X139257142Y-156882619D01*
X139257142Y-156882619D02*
X139590475Y-157882619D01*
X139923809Y-157882619D02*
X139923809Y-156882619D01*
X139923809Y-156882619D02*
X140495237Y-157882619D01*
X140495237Y-157882619D02*
X140495237Y-156882619D01*
X140971428Y-157882619D02*
X140971428Y-156882619D01*
X141542856Y-157882619D02*
X141114285Y-157311190D01*
X141542856Y-156882619D02*
X140971428Y-157454047D01*
X142447618Y-157882619D02*
X141971428Y-157882619D01*
X141971428Y-157882619D02*
X141971428Y-156882619D01*
X142780952Y-157358809D02*
X143114285Y-157358809D01*
X143257142Y-157882619D02*
X142780952Y-157882619D01*
X142780952Y-157882619D02*
X142780952Y-156882619D01*
X142780952Y-156882619D02*
X143257142Y-156882619D01*
X143447619Y-157977857D02*
X144209523Y-157977857D01*
X144923809Y-157882619D02*
X144447619Y-157882619D01*
X144447619Y-157882619D02*
X144447619Y-156882619D01*
X145780952Y-157882619D02*
X145209524Y-157882619D01*
X145495238Y-157882619D02*
X145495238Y-156882619D01*
X145495238Y-156882619D02*
X145400000Y-157025476D01*
X145400000Y-157025476D02*
X145304762Y-157120714D01*
X145304762Y-157120714D02*
X145209524Y-157168333D01*
%TO.C,GAL_L1*%
X104766666Y-121280238D02*
X104671428Y-121232619D01*
X104671428Y-121232619D02*
X104528571Y-121232619D01*
X104528571Y-121232619D02*
X104385714Y-121280238D01*
X104385714Y-121280238D02*
X104290476Y-121375476D01*
X104290476Y-121375476D02*
X104242857Y-121470714D01*
X104242857Y-121470714D02*
X104195238Y-121661190D01*
X104195238Y-121661190D02*
X104195238Y-121804047D01*
X104195238Y-121804047D02*
X104242857Y-121994523D01*
X104242857Y-121994523D02*
X104290476Y-122089761D01*
X104290476Y-122089761D02*
X104385714Y-122185000D01*
X104385714Y-122185000D02*
X104528571Y-122232619D01*
X104528571Y-122232619D02*
X104623809Y-122232619D01*
X104623809Y-122232619D02*
X104766666Y-122185000D01*
X104766666Y-122185000D02*
X104814285Y-122137380D01*
X104814285Y-122137380D02*
X104814285Y-121804047D01*
X104814285Y-121804047D02*
X104623809Y-121804047D01*
X105195238Y-121946904D02*
X105671428Y-121946904D01*
X105100000Y-122232619D02*
X105433333Y-121232619D01*
X105433333Y-121232619D02*
X105766666Y-122232619D01*
X106576190Y-122232619D02*
X106100000Y-122232619D01*
X106100000Y-122232619D02*
X106100000Y-121232619D01*
X106671429Y-122327857D02*
X107433333Y-122327857D01*
X108147619Y-122232619D02*
X107671429Y-122232619D01*
X107671429Y-122232619D02*
X107671429Y-121232619D01*
X109004762Y-122232619D02*
X108433334Y-122232619D01*
X108719048Y-122232619D02*
X108719048Y-121232619D01*
X108719048Y-121232619D02*
X108623810Y-121375476D01*
X108623810Y-121375476D02*
X108528572Y-121470714D01*
X108528572Y-121470714D02*
X108433334Y-121518333D01*
%TO.C,S1*%
X103540000Y-150192904D02*
X103587619Y-150050047D01*
X103587619Y-150050047D02*
X103587619Y-149811952D01*
X103587619Y-149811952D02*
X103540000Y-149716714D01*
X103540000Y-149716714D02*
X103492380Y-149669095D01*
X103492380Y-149669095D02*
X103397142Y-149621476D01*
X103397142Y-149621476D02*
X103301904Y-149621476D01*
X103301904Y-149621476D02*
X103206666Y-149669095D01*
X103206666Y-149669095D02*
X103159047Y-149716714D01*
X103159047Y-149716714D02*
X103111428Y-149811952D01*
X103111428Y-149811952D02*
X103063809Y-150002428D01*
X103063809Y-150002428D02*
X103016190Y-150097666D01*
X103016190Y-150097666D02*
X102968571Y-150145285D01*
X102968571Y-150145285D02*
X102873333Y-150192904D01*
X102873333Y-150192904D02*
X102778095Y-150192904D01*
X102778095Y-150192904D02*
X102682857Y-150145285D01*
X102682857Y-150145285D02*
X102635238Y-150097666D01*
X102635238Y-150097666D02*
X102587619Y-150002428D01*
X102587619Y-150002428D02*
X102587619Y-149764333D01*
X102587619Y-149764333D02*
X102635238Y-149621476D01*
X103587619Y-148669095D02*
X103587619Y-149240523D01*
X103587619Y-148954809D02*
X102587619Y-148954809D01*
X102587619Y-148954809D02*
X102730476Y-149050047D01*
X102730476Y-149050047D02*
X102825714Y-149145285D01*
X102825714Y-149145285D02*
X102873333Y-149240523D01*
%TO.C,J3*%
X116961666Y-101192619D02*
X116961666Y-101906904D01*
X116961666Y-101906904D02*
X116914047Y-102049761D01*
X116914047Y-102049761D02*
X116818809Y-102145000D01*
X116818809Y-102145000D02*
X116675952Y-102192619D01*
X116675952Y-102192619D02*
X116580714Y-102192619D01*
X117342619Y-101192619D02*
X117961666Y-101192619D01*
X117961666Y-101192619D02*
X117628333Y-101573571D01*
X117628333Y-101573571D02*
X117771190Y-101573571D01*
X117771190Y-101573571D02*
X117866428Y-101621190D01*
X117866428Y-101621190D02*
X117914047Y-101668809D01*
X117914047Y-101668809D02*
X117961666Y-101764047D01*
X117961666Y-101764047D02*
X117961666Y-102002142D01*
X117961666Y-102002142D02*
X117914047Y-102097380D01*
X117914047Y-102097380D02*
X117866428Y-102145000D01*
X117866428Y-102145000D02*
X117771190Y-102192619D01*
X117771190Y-102192619D02*
X117485476Y-102192619D01*
X117485476Y-102192619D02*
X117390238Y-102145000D01*
X117390238Y-102145000D02*
X117342619Y-102097380D01*
%TO.C,R1*%
X99192619Y-133666666D02*
X98716428Y-133999999D01*
X99192619Y-134238094D02*
X98192619Y-134238094D01*
X98192619Y-134238094D02*
X98192619Y-133857142D01*
X98192619Y-133857142D02*
X98240238Y-133761904D01*
X98240238Y-133761904D02*
X98287857Y-133714285D01*
X98287857Y-133714285D02*
X98383095Y-133666666D01*
X98383095Y-133666666D02*
X98525952Y-133666666D01*
X98525952Y-133666666D02*
X98621190Y-133714285D01*
X98621190Y-133714285D02*
X98668809Y-133761904D01*
X98668809Y-133761904D02*
X98716428Y-133857142D01*
X98716428Y-133857142D02*
X98716428Y-134238094D01*
X99192619Y-132714285D02*
X99192619Y-133285713D01*
X99192619Y-132999999D02*
X98192619Y-132999999D01*
X98192619Y-132999999D02*
X98335476Y-133095237D01*
X98335476Y-133095237D02*
X98430714Y-133190475D01*
X98430714Y-133190475D02*
X98478333Y-133285713D01*
%TO.C,REF\u002A\u002A*%
X149866666Y-161362619D02*
X149533333Y-160886428D01*
X149295238Y-161362619D02*
X149295238Y-160362619D01*
X149295238Y-160362619D02*
X149676190Y-160362619D01*
X149676190Y-160362619D02*
X149771428Y-160410238D01*
X149771428Y-160410238D02*
X149819047Y-160457857D01*
X149819047Y-160457857D02*
X149866666Y-160553095D01*
X149866666Y-160553095D02*
X149866666Y-160695952D01*
X149866666Y-160695952D02*
X149819047Y-160791190D01*
X149819047Y-160791190D02*
X149771428Y-160838809D01*
X149771428Y-160838809D02*
X149676190Y-160886428D01*
X149676190Y-160886428D02*
X149295238Y-160886428D01*
X150295238Y-160838809D02*
X150628571Y-160838809D01*
X150771428Y-161362619D02*
X150295238Y-161362619D01*
X150295238Y-161362619D02*
X150295238Y-160362619D01*
X150295238Y-160362619D02*
X150771428Y-160362619D01*
X151533333Y-160838809D02*
X151200000Y-160838809D01*
X151200000Y-161362619D02*
X151200000Y-160362619D01*
X151200000Y-160362619D02*
X151676190Y-160362619D01*
X152200000Y-160362619D02*
X152200000Y-160600714D01*
X151961905Y-160505476D02*
X152200000Y-160600714D01*
X152200000Y-160600714D02*
X152438095Y-160505476D01*
X152057143Y-160791190D02*
X152200000Y-160600714D01*
X152200000Y-160600714D02*
X152342857Y-160791190D01*
X152961905Y-160362619D02*
X152961905Y-160600714D01*
X152723810Y-160505476D02*
X152961905Y-160600714D01*
X152961905Y-160600714D02*
X153200000Y-160505476D01*
X152819048Y-160791190D02*
X152961905Y-160600714D01*
X152961905Y-160600714D02*
X153104762Y-160791190D01*
%TO.C,J19*%
X103857619Y-153459523D02*
X104571904Y-153459523D01*
X104571904Y-153459523D02*
X104714761Y-153507142D01*
X104714761Y-153507142D02*
X104810000Y-153602380D01*
X104810000Y-153602380D02*
X104857619Y-153745237D01*
X104857619Y-153745237D02*
X104857619Y-153840475D01*
X104857619Y-152459523D02*
X104857619Y-153030951D01*
X104857619Y-152745237D02*
X103857619Y-152745237D01*
X103857619Y-152745237D02*
X104000476Y-152840475D01*
X104000476Y-152840475D02*
X104095714Y-152935713D01*
X104095714Y-152935713D02*
X104143333Y-153030951D01*
X104857619Y-151983332D02*
X104857619Y-151792856D01*
X104857619Y-151792856D02*
X104810000Y-151697618D01*
X104810000Y-151697618D02*
X104762380Y-151649999D01*
X104762380Y-151649999D02*
X104619523Y-151554761D01*
X104619523Y-151554761D02*
X104429047Y-151507142D01*
X104429047Y-151507142D02*
X104048095Y-151507142D01*
X104048095Y-151507142D02*
X103952857Y-151554761D01*
X103952857Y-151554761D02*
X103905238Y-151602380D01*
X103905238Y-151602380D02*
X103857619Y-151697618D01*
X103857619Y-151697618D02*
X103857619Y-151888094D01*
X103857619Y-151888094D02*
X103905238Y-151983332D01*
X103905238Y-151983332D02*
X103952857Y-152030951D01*
X103952857Y-152030951D02*
X104048095Y-152078570D01*
X104048095Y-152078570D02*
X104286190Y-152078570D01*
X104286190Y-152078570D02*
X104381428Y-152030951D01*
X104381428Y-152030951D02*
X104429047Y-151983332D01*
X104429047Y-151983332D02*
X104476666Y-151888094D01*
X104476666Y-151888094D02*
X104476666Y-151697618D01*
X104476666Y-151697618D02*
X104429047Y-151602380D01*
X104429047Y-151602380D02*
X104381428Y-151554761D01*
X104381428Y-151554761D02*
X104286190Y-151507142D01*
D11*
%TO.C,J17*%
X105680000Y-105555000D02*
X104350000Y-105555000D01*
X105680000Y-104225000D02*
X105680000Y-105555000D01*
X105680000Y-102955000D02*
X105680000Y-100355000D01*
X105680000Y-102955000D02*
X103020000Y-102955000D01*
X105680000Y-100355000D02*
X103020000Y-100355000D01*
X103020000Y-102955000D02*
X103020000Y-100355000D01*
%TO.C,KNEE_L1*%
X119880000Y-97470000D02*
X118550000Y-97470000D01*
X119880000Y-96140000D02*
X119880000Y-97470000D01*
X119880000Y-94870000D02*
X119880000Y-89730000D01*
X119880000Y-94870000D02*
X117220000Y-94870000D01*
X119880000Y-89730000D02*
X117220000Y-89730000D01*
X117220000Y-94870000D02*
X117220000Y-89730000D01*
%TO.C,GAL_R1*%
X108180000Y-138720000D02*
X106850000Y-138720000D01*
X108180000Y-137390000D02*
X108180000Y-138720000D01*
X108180000Y-136120000D02*
X108180000Y-128440000D01*
X108180000Y-136120000D02*
X105520000Y-136120000D01*
X108180000Y-128440000D02*
X105520000Y-128440000D01*
X105520000Y-136120000D02*
X105520000Y-128440000D01*
%TO.C,J18*%
X105645000Y-147380000D02*
X105645000Y-146050000D01*
X106975000Y-147380000D02*
X105645000Y-147380000D01*
X108245000Y-147380000D02*
X110845000Y-147380000D01*
X108245000Y-147380000D02*
X108245000Y-144720000D01*
X110845000Y-147380000D02*
X110845000Y-144720000D01*
X108245000Y-144720000D02*
X110845000Y-144720000D01*
%TO.C,HIP2_L1*%
X134620000Y-158470000D02*
X135950000Y-158470000D01*
X134620000Y-159800000D02*
X134620000Y-158470000D01*
X134620000Y-161070000D02*
X134620000Y-166210000D01*
X134620000Y-161070000D02*
X137280000Y-161070000D01*
X134620000Y-166210000D02*
X137280000Y-166210000D01*
X137280000Y-161070000D02*
X137280000Y-166210000D01*
%TO.C,J16*%
X111680000Y-105530000D02*
X110350000Y-105530000D01*
X111680000Y-104200000D02*
X111680000Y-105530000D01*
X111680000Y-102930000D02*
X111680000Y-100330000D01*
X111680000Y-102930000D02*
X109020000Y-102930000D01*
X111680000Y-100330000D02*
X109020000Y-100330000D01*
X109020000Y-102930000D02*
X109020000Y-100330000D01*
%TO.C,J2*%
X148270000Y-105720000D02*
X148270000Y-123560000D01*
X148270000Y-105720000D02*
X150930000Y-105720000D01*
X148270000Y-123560000D02*
X150930000Y-123560000D01*
X149600000Y-103120000D02*
X150930000Y-103120000D01*
X150930000Y-103120000D02*
X150930000Y-104450000D01*
X150930000Y-105720000D02*
X150930000Y-123560000D01*
%TO.C,J4*%
X143230000Y-148930000D02*
X143230000Y-103150000D01*
X143230000Y-148930000D02*
X140570000Y-148930000D01*
X143230000Y-103150000D02*
X140570000Y-103150000D01*
X141900000Y-151530000D02*
X140570000Y-151530000D01*
X140570000Y-151530000D02*
X140570000Y-150200000D01*
X140570000Y-148930000D02*
X140570000Y-103150000D01*
%TO.C,HIP2_R1*%
X123120000Y-158720000D02*
X124450000Y-158720000D01*
X123120000Y-160050000D02*
X123120000Y-158720000D01*
X123120000Y-161320000D02*
X123120000Y-166460000D01*
X123120000Y-161320000D02*
X125780000Y-161320000D01*
X123120000Y-166460000D02*
X125780000Y-166460000D01*
X125780000Y-161320000D02*
X125780000Y-166460000D01*
%TO.C,HIP_R1*%
X118830000Y-161470000D02*
X118830000Y-166610000D01*
X116170000Y-166610000D02*
X118830000Y-166610000D01*
X116170000Y-161470000D02*
X118830000Y-161470000D01*
X116170000Y-161470000D02*
X116170000Y-166610000D01*
X116170000Y-160200000D02*
X116170000Y-158870000D01*
X116170000Y-158870000D02*
X117500000Y-158870000D01*
%TO.C,KNEE_R1*%
X133130000Y-97310000D02*
X131800000Y-97310000D01*
X133130000Y-95980000D02*
X133130000Y-97310000D01*
X133130000Y-94710000D02*
X133130000Y-89570000D01*
X133130000Y-94710000D02*
X130470000Y-94710000D01*
X133130000Y-89570000D02*
X130470000Y-89570000D01*
X130470000Y-94710000D02*
X130470000Y-89570000D01*
%TO.C,D1*%
X101936000Y-123270000D02*
X101780000Y-123270000D01*
X99620000Y-123270000D02*
X99464000Y-123270000D01*
X101778608Y-126502334D02*
G75*
G03*
X101935515Y-123270001I-1078608J1672334D01*
G01*
X101779836Y-125871129D02*
G75*
G03*
X101779999Y-123789040I-1079836J1041129D01*
G01*
X99620001Y-123789040D02*
G75*
G03*
X99620164Y-125871129I1079999J-1040960D01*
G01*
X99464485Y-123270001D02*
G75*
G03*
X99621392Y-126502334I1235515J-1559999D01*
G01*
%TO.C,J1*%
X97700000Y-168950000D02*
X110300000Y-168950000D01*
X110300000Y-168950000D02*
X110300000Y-158600000D01*
X102500000Y-158600000D02*
X102800000Y-158100000D01*
X107900000Y-158600000D02*
X102500000Y-158600000D01*
X109350000Y-158600000D02*
X109600000Y-158100000D01*
X110300000Y-158600000D02*
X109350000Y-158600000D01*
X97700000Y-158100000D02*
X97700000Y-168950000D01*
X102800000Y-158100000D02*
X97700000Y-158100000D01*
X107650000Y-158100000D02*
X107900000Y-158600000D01*
X107700000Y-158100000D02*
X107650000Y-158100000D01*
X109600000Y-158100000D02*
X107700000Y-158100000D01*
%TO.C,ANKLE_L1*%
X143730000Y-161020000D02*
X143730000Y-166160000D01*
X141070000Y-166160000D02*
X143730000Y-166160000D01*
X141070000Y-161020000D02*
X143730000Y-161020000D01*
X141070000Y-161020000D02*
X141070000Y-166160000D01*
X141070000Y-159750000D02*
X141070000Y-158420000D01*
X141070000Y-158420000D02*
X142400000Y-158420000D01*
%TO.C,GAL_L1*%
X107930000Y-120770000D02*
X106600000Y-120770000D01*
X107930000Y-119440000D02*
X107930000Y-120770000D01*
X107930000Y-118170000D02*
X107930000Y-110490000D01*
X107930000Y-118170000D02*
X105270000Y-118170000D01*
X107930000Y-110490000D02*
X105270000Y-110490000D01*
X105270000Y-118170000D02*
X105270000Y-110490000D01*
D12*
%TO.C,S1*%
X101982000Y-143208000D02*
X101982000Y-148796000D01*
X101474000Y-143208000D02*
X101982000Y-143208000D01*
X98426000Y-143208000D02*
X98426000Y-143716000D01*
X97918000Y-143208000D02*
X98426000Y-143208000D01*
X101474000Y-143716000D02*
X101474000Y-143208000D01*
X98426000Y-143716000D02*
X101474000Y-143716000D01*
X100966000Y-147018000D02*
X98934000Y-147018000D01*
X98934000Y-147272000D02*
X100966000Y-147272000D01*
X100966000Y-147526000D02*
X98934000Y-147526000D01*
X98934000Y-147780000D02*
X100966000Y-147780000D01*
X100966000Y-148034000D02*
X98934000Y-148034000D01*
X98934000Y-148288000D02*
X100966000Y-148288000D01*
X100966000Y-148542000D02*
X98934000Y-148542000D01*
X101982000Y-148796000D02*
X101728000Y-149050000D01*
X97918000Y-148796000D02*
X97918000Y-143208000D01*
X101728000Y-149050000D02*
X101982000Y-149304000D01*
X98172000Y-149050000D02*
X97918000Y-148796000D01*
X101982000Y-149304000D02*
X101982000Y-154892000D01*
X97918000Y-149304000D02*
X98172000Y-149050000D01*
X101474000Y-154384000D02*
X98426000Y-154384000D01*
X98426000Y-154384000D02*
X98426000Y-154892000D01*
X101982000Y-154892000D02*
X101474000Y-154892000D01*
X101474000Y-154892000D02*
X101474000Y-154384000D01*
X98426000Y-154892000D02*
X97918000Y-154892000D01*
X97918000Y-154892000D02*
X97918000Y-149304000D01*
D11*
%TO.C,HIP_L1*%
X137420000Y-94710000D02*
X137420000Y-89570000D01*
X140080000Y-89570000D02*
X137420000Y-89570000D01*
X140080000Y-94710000D02*
X137420000Y-94710000D01*
X140080000Y-94710000D02*
X140080000Y-89570000D01*
X140080000Y-95980000D02*
X140080000Y-97310000D01*
X140080000Y-97310000D02*
X138750000Y-97310000D01*
%TO.C,ANKLE_R1*%
X126480000Y-97410000D02*
X125150000Y-97410000D01*
X126480000Y-96080000D02*
X126480000Y-97410000D01*
X126480000Y-94810000D02*
X126480000Y-89670000D01*
X126480000Y-94810000D02*
X123820000Y-94810000D01*
X126480000Y-89670000D02*
X123820000Y-89670000D01*
X123820000Y-94810000D02*
X123820000Y-89670000D01*
%TO.C,J3*%
X115965000Y-105770000D02*
X115965000Y-151550000D01*
X115965000Y-105770000D02*
X118625000Y-105770000D01*
X115965000Y-151550000D02*
X118625000Y-151550000D01*
X117295000Y-103170000D02*
X118625000Y-103170000D01*
X118625000Y-103170000D02*
X118625000Y-104500000D01*
X118625000Y-105770000D02*
X118625000Y-151550000D01*
%TO.C,R1*%
X99730000Y-135420000D02*
X99730000Y-131580000D01*
X101570000Y-135420000D02*
X101570000Y-131580000D01*
%TO.C,J19*%
X105395000Y-153980000D02*
X105395000Y-152650000D01*
X106725000Y-153980000D02*
X105395000Y-153980000D01*
X107995000Y-153980000D02*
X110595000Y-153980000D01*
X107995000Y-153980000D02*
X107995000Y-151320000D01*
X110595000Y-153980000D02*
X110595000Y-151320000D01*
X107995000Y-151320000D02*
X110595000Y-151320000D01*
%TD*%
M02*
